/videos/01996b62aa9b9f3fa57f3f35a2954a67/hls1/main/0.ts

{"Protocol":0,"Id":"01996b62aa9b9f3fa57f3f35a2954a67","Path":"/media/movies/jellyfish-5-mbps-hd-hevc/jellyfish-5-mbps-hd-hevc.mkv","EncoderPath":null,"EncoderProtocol":null,"Type":0,"Container":"mkv,webm","Size":17793468,"Name":"jellyfish-5-mbps-hd-hevc","IsRemote":false,"ETag":"73322a7ae269ef56301e06f2ada196e5","RunTimeTicks":300969984,"ReadAtNativeFramerate":false,"IgnoreDts":false,"IgnoreIndex":false,"GenPtsInput":false,"SupportsTranscoding":true,"SupportsDirectStream":true,"SupportsDirectPlay":true,"IsInfiniteStream":false,"RequiresOpening":false,"OpenToken":null,"RequiresClosing":false,"LiveStreamId":null,"BufferMs":null,"RequiresLooping":false,"SupportsProbing":true,"VideoType":0,"IsoType":null,"Video3DFormat":null,"MediaStreams":[{"Codec":"hevc","CodecTag":null,"Language":"und","ColorRange":null,"ColorSpace":null,"ColorTransfer":null,"ColorPrimaries":null,"Comment":null,"TimeBase":"1/1000","CodecTimeBase":"100/2997","Title":null,"VideoRange":"SDR","localizedUndefined":null,"localizedDefault":null,"localizedForced":null,"DisplayTitle":"1080p HEVC SDR","NalLengthSize":null,"IsInterlaced":false,"IsAVC":null,"ChannelLayout":null,"BitRate":4729632,"BitDepth":null,"RefFrames":1,"PacketLength":null,"Channels":null,"SampleRate":null,"IsDefault":true,"IsForced":false,"Height":1080,"Width":1920,"AverageFrameRate":29.97,"RealFrameRate":29.97,"Profile":"Main","Type":1,"AspectRatio":"16:9","Index":0,"Score":null,"IsExternal":false,"DeliveryMethod":null,"DeliveryUrl":null,"IsExternalUrl":null,"IsTextSubtitleStream":false,"SupportsExternalStream":false,"Path":null,"PixelFormat":"yuv420p","Level":120,"IsAnamorphic":null}],"MediaAttachments":[],"Formats":[],"Bitrate":4729632,"Timestamp":null,"RequiredHttpHeaders":{},"TranscodingUrl":null,"TranscodingSubProtocol":null,"TranscodingContainer":null,"AnalyzeDurationMs":null,"DefaultAudioStreamIndex":null,"DefaultSubtitleStreamIndex":null}

/usr/lib/jellyfin-ffmpeg/ffmpeg -fflags +genpts -f matroska,webm -i file:"/media/movies/jellyfish-5-mbps-hd-hevc/jellyfish-5-mbps-hd-hevc.mkv" -map_metadata -1 -map_chapters -1 -threads 0 -map 0:0 -map -0:a -map -0:s -codec:v:0 copy -tag:v:0 hvc1 -bsf:v hevc_mp4toannexb -start_at_zero -vsync -1  -copyts -avoid_negative_ts disabled -max_muxing_queue_size 2048 -f hls -max_delay 5000000 -hls_time 6 -hls_segment_type mpegts -start_number 0 -hls_segment_filename "/config/data/transcodes/aaff979e2784263be039d1f773b0bc3b%d.ts" -hls_playlist_type vod -hls_list_size 0 -y "/config/data/transcodes/aaff979e2784263be039d1f773b0bc3b.m3u8"


ffmpeg version 4.3.1-Jellyfin Copyright (c) 2000-2020 the FFmpeg developers
  built with gcc 9 (Ubuntu 9.3.0-17ubuntu1~20.04)
  configuration: --prefix=/usr/lib/jellyfin-ffmpeg --target-os=linux --extra-version=Jellyfin --disable-doc --disable-ffplay --disable-shared --disable-libxcb --disable-sdl2 --disable-xlib --enable-gpl --enable-version3 --enable-static --enable-libfontconfig --enable-fontconfig --enable-gmp --enable-gnutls --enable-libass --enable-libbluray --enable-libdrm --enable-libfreetype --enable-libfribidi --enable-libmp3lame --enable-libopus --enable-libtheora --enable-libvorbis --enable-libdav1d --enable-libwebp --enable-libvpx --enable-libx264 --enable-libx265 --enable-libzvbi --enable-libzimg --arch=amd64 --enable-opencl --enable-vaapi --enable-amf --enable-libmfx --enable-vdpau --enable-cuda --enable-cuda-llvm --enable-cuvid --enable-nvenc --enable-nvdec --enable-ffnvcodec
  libavutil      56. 51.100 / 56. 51.100
  libavcodec     58. 91.100 / 58. 91.100
  libavformat    58. 45.100 / 58. 45.100
  libavdevice    58. 10.100 / 58. 10.100
  libavfilter     7. 85.100 /  7. 85.100
  libswscale      5.  7.100 /  5.  7.100
  libswresample   3.  7.100 /  3.  7.100
  libpostproc    55.  7.100 / 55.  7.100
Input #0, matroska,webm, from 'file:/media/movies/jellyfish-5-mbps-hd-hevc/jellyfish-5-mbps-hd-hevc.mkv':
  Metadata:
    COMPATIBLE_BRANDS: iso4hvc1iso6
    MAJOR_BRAND     : iso4
    MINOR_VERSION   : 1
    ENCODER         : Lavf56.3.100
  Duration: 00:00:30.10, start: 0.067000, bitrate: 4729 kb/s
    Stream #0:0(und): Video: hevc (Main), yuv420p(tv), 1920x1080 [SAR 1:1 DAR 16:9], 29.97 fps, 29.97 tbr, 1k tbn, 29.97 tbc (default)
    Metadata:
      CREATION_TIME   : 2016-02-04 22:13:45
      LANGUAGE        : und
      HANDLER_NAME    : hevc@GPAC0.5.2-DEV-rev565-g71748d7-ab-suite
Output #0, hls, to '/config/data/transcodes/aaff979e2784263be039d1f773b0bc3b.m3u8':
  Metadata:
    encoder         : Lavf58.45.100
    Stream #0:0: Video: hevc (Main) (hvc1 / 0x31637668), yuv420p(tv), 1920x1080 [SAR 1:1 DAR 16:9], q=2-31, 29.97 fps, 29.97 tbr, 90k tbn, 29.97 tbc (default)
Stream mapping:
  Stream #0:0 -> #0:0 (copy)
Press [q] to stop, [?] for help
[hls @ 0x562b90bd3180] Opening '/config/data/transcodes/aaff979e2784263be039d1f773b0bc3b0.ts' for writing
[hls @ 0x562b90bd3180] Opening '/config/data/transcodes/aaff979e2784263be039d1f773b0bc3b1.ts' for writing
[hls @ 0x562b90bd3180] Opening '/config/data/transcodes/aaff979e2784263be039d1f773b0bc3b2.ts' for writing
[hls @ 0x562b90bd3180] Opening '/config/data/transcodes/aaff979e2784263be039d1f773b0bc3b3.ts' for writing
frame=  900 fps=0.0 q=-1.0 Lsize=N/A time=00:00:29.93 bitrate=N/A speed=2.02e+03x    
video:17369kB audio:0kB subtitle:0kB other streams:0kB global headers:0kB muxing overhead: unknown